# xmcd CD database file
#
# Track frame offsets:
#	150
#	18850
#	38643
#	53037
#	69137
#	88588
#	108472
#	128197
#	147922
#	161853
#	177123
#	192328
#	208378
#	226444
#	246860
#
# Disc length: 3602 seconds
#
# Revision: 2
# Processed by: cddbd v1.5.2PL0 Copyright (c) Steve Scherf et al.
# Submitted via: CDex 1.51
#
DISCID=ce0e100f
DTITLE=Heli Deinboek - Coole Ader
DYEAR=2010
DGENRE=Blues
TTITLE0=Heli Deinboek - Caipirinha
TTITLE1=Heli Deinboek - Beim Kircherl
TTITLE2=Heli Deinboek - Humtata
TTITLE3=Heli Deinboek - Coole Ader
TTITLE4=Heli Deinboek - Mach ma a Baby
TTITLE5=Heli Deinboek - Ganz der Papa
TTITLE6=Heli Deinboek - Sonntag
TTITLE7=Heli Deinboek - Geisterpfarrer
TTITLE8=Heli Deinboek - Servas des war knapp
TTITLE9=Heli Deinboek - Monitor
TTITLE10=Heli Deinboek - Latin Lover
TTITLE11=Heli Deinboek - Homo sapiens
TTITLE12=Heli Deinboek - Frust mit an Feeling
TTITLE13=Heli Deinboek - Tuas afoch
TTITLE14=Heli Deinboek - Tanz an Blues mit mir
EXTD=YEAR: 2010
EXTT0=
EXTT1=
EXTT2=
EXTT3=
EXTT4=
EXTT5=
EXTT6=
EXTT7=
EXTT8=
EXTT9=
EXTT10=
EXTT11=
EXTT12=
EXTT13=
EXTT14=
PLAYORDER=
